Coordinates
version=1
nRows=29
nColumns=24
inDegrees=yes

Units are S.I. units (second, meters, Newtons, ...)
Angles are in degrees.

endheader
time	pelvis_tilt	pelvis_list	pelvis_rotation	pelvis_tx	pelvis_ty	pelvis_tz	hip_flexion_r	hip_adduction_r	hip_rotation_r	knee_angle_r	ankle_angle_r	subtalar_angle_r	mtp_angle_r	hip_flexion_l	hip_adduction_l	hip_rotation_l	knee_angle_l	ankle_angle_l	subtalar_angle_l	mtp_angle_l	lumbar_extension	lumbar_bending	lumbar_rotation
      0.48300000	     -0.38325984	      1.85538213	     -3.35182165	     -0.72275474	      1.00607376	      0.28558276	     18.66212686	     -0.38473111	     -0.08867939	     -0.28340629	      3.11174920	     -3.35408479	      0.40086735	    -16.09149124	      6.71037214	      6.74574497	     -4.87413711	      7.39743724	    -10.37327141	     -0.35148937	    -10.37418768	      8.25796376	     -9.24295978
      0.48716667	     -0.44456131	      1.79039833	     -3.34339882	     -0.71703099	      1.00546231	      0.28590837	     18.63243615	     -0.25846557	      0.21675281	     -0.31620425	      2.89820220	     -3.21485014	      0.58552099	    -16.03804162	      6.64215062	      6.61519498	     -5.57033694	      7.60491310	    -10.03324689	     -0.52091799	    -10.30579425	      8.32397053	     -9.14176105
      0.49133333	     -0.50045646	      1.71696410	     -3.38282354	     -0.71128935	      1.00487479	      0.28629536	     18.61939001	     -0.10874020	      0.59234289	     -0.46273489	      2.66669126	     -3.11196986	      0.73957963	    -15.98964326	      6.58038336	      6.47179383	     -6.26414640	      7.74820874	     -9.77752806	     -0.59700569	    -10.23794612	      8.44011733	     -9.09268228
      0.49550000	     -0.51184142	      1.60597867	     -3.38049963	     -0.70551698	      1.00440968	      0.28664849	     18.53145278	      0.06580442	      0.93177590	     -0.63543009	      2.42225246	     -3.11565276	      0.93792550	    -15.93752653	      6.46577272	      6.25730946	     -7.06703751	      7.89701973	     -9.38451729	     -0.61668781	    -10.23211674	      8.55582828	     -9.01625309
      0.49966667	     -0.57051601	      1.50199697	     -3.39811173	     -0.69972611	      1.00388334	      0.28703089	     18.51934516	      0.24256363	      1.29683924	     -0.91236561	      2.13830526	     -3.13998025	      1.12699106	    -15.82306866	      6.36366475	      6.06613565	     -7.89014269	      7.99937321	     -9.06749152	     -0.56316626	    -10.16304396	      8.68428794	     -8.92912273
      0.50383333	     -0.58288599	      1.36635341	     -3.41093881	     -0.69389824	      1.00347121	      0.28740675	     18.44579649	      0.44746079	      1.64608473	     -1.22552700	      1.80915588	     -3.21238697	      1.32994433	    -15.72900604	      6.22642144	      5.81783626	     -8.77565373	      8.11032059	     -8.67270294	     -0.42997037	    -10.14928732	      8.85383093	     -8.85099089
      0.50800000	     -0.59090963	      1.23018956	     -3.42461658	     -0.68806001	      1.00308937	      0.28779816	     18.37637301	      0.65459410	      1.99464472	     -1.60206211	      1.46628624	     -3.33680514	      1.54037095	    -15.61382174	      6.08766920	      5.56439148	     -9.70597641	      8.17125500	     -8.29717783	     -0.21514219	    -10.14659422	      9.01377114	     -8.75893248
      0.51216667	     -0.61079951	      1.07204466	     -3.43751487	     -0.68218739	      1.00270915	      0.28819968	     18.32114173	      0.88631819	      2.32946205	     -2.02331666	      1.09839614	     -3.50350316	      1.75462661	    -15.45733380	      5.92191751	      5.28026550	    -10.69836507	      8.21663663	     -7.90035449	      0.08270591	    -10.13021120	      9.19528068	     -8.66595219
      0.51633333	     -0.58080642	      0.92715035	     -3.45584812	     -0.67632810	      1.00241457	      0.28860065	     18.23762756	      1.10314038	      2.63864621	     -2.52464778	      0.71905935	     -3.73048772	      2.06636140	    -15.32541491	      5.77055146	      4.96882084	    -11.73750093	      8.25399640	     -7.43746061	      0.62324441	    -10.17786794	      9.37408759	     -8.58077808
      0.52050000	     -0.57742510	      0.73526360	     -3.43849120	     -0.67035630	      1.00213902	      0.28895289	     18.14100525	      1.35680829	      2.88594370	     -2.98157806	      0.29691962	     -3.97296415	      4.34896378	    -15.15967771	      5.55974438	      4.71005092	    -12.78068328	      8.04769256	     -7.19464358	      5.30145153	    -10.16875624	      9.60143465	     -8.46540856
      0.52466667	     -0.59791217	      0.59186157	     -3.46219390	     -0.66446899	      1.00180813	      0.28936289	     18.13513509	      1.57712681	      3.16415651	     -3.58137359	     -0.01033587	     -4.18214945	      4.38867770	    -14.90907778	      5.40636195	      4.37868912	    -13.93423691	      7.94173221	     -6.83511405	      5.40683930	    -10.15523293	      9.77309300	     -8.38735061
      0.52883333	     -0.57459218	      0.42049001	     -3.46089653	     -0.65853216	      1.00158257	      0.28975402	     18.05877439	      1.81680546	      3.40211893	     -4.15985767	     -0.34853919	     -4.47329530	      4.43679973	    -14.68023215	      5.21014230	      4.02466828	    -15.13543531	      7.81162511	     -6.40652714	      5.63280559	    -10.18456049	      9.97782272	     -8.28062617
      0.53300000	     -0.56426856	      0.25470235	     -3.45244213	     -0.65258860	      1.00135489	      0.29013458	     18.01056099	      2.04915743	      3.60112261	     -4.78347469	     -0.65411589	     -4.78013732	      4.49548381	    -14.40527581	      5.01277840	      3.66828373	    -16.38518335	      7.61494801	     -5.99584832	      5.99973517	    -10.19789188	     10.17248320	     -8.17708169
      0.53716667	     -0.55860459	      0.08347086	     -3.44011014	     -0.64663648	      1.00113745	      0.29051307	     17.97182022	      2.28648776	      3.78004954	     -5.42874835	     -0.92669783	     -5.10222978	      4.55960560	    -14.08798903	      4.80078984	      3.28867054	    -17.69687429	      7.35628585	     -5.57552270	      6.50568308	    -10.20722371	     10.37197709	     -8.06342112
      0.54133333	     -0.51402605	     -0.10812126	     -3.42541034	     -0.64062868	      1.00100910	      0.29089481	     17.86735162	      2.54094155	      3.94986987	     -6.04102749	     -1.18325732	     -5.45383910	      5.19263221	    -13.80534200	      4.56158430	      2.90352656	    -18.99326669	      6.82824579	     -5.33593336	     12.20638594	    -10.25313805	     10.59597453	     -7.95100117
      0.54550000	     -0.52206797	     -0.25701215	     -3.41315372	     -0.63468382	      1.00079307	      0.29125994	     17.88126430	      2.75305494	      4.05989523	     -6.78624539	     -1.24529097	     -5.66832667	      5.20098370	    -13.40904939	      4.36204615	      2.51936663	    -20.39252203	      6.39572682	     -5.00770267	     12.29824659	    -10.23825896	     10.77035638	     -7.85199498
      0.54966667	     -0.50095227	     -0.42931149	     -3.38121050	     -0.62872869	      1.00063987	      0.29162382	     17.84709210	      2.98340961	      4.14186025	     -7.50617756	     -1.33852651	     -5.95702565	      5.20707165	    -13.00638320	      4.11598222	      2.08794971	    -21.85109954	      5.93581428	     -4.58745288	     12.49744361	    -10.26123330	     10.96205075	     -7.73686954
      0.55383333	     -0.45783464	     -0.61459737	     -3.34281721	     -0.62278054	      1.00054565	      0.29200361	     17.77325069	      3.23022661	      4.25633744	     -8.19983423	     -1.45173895	     -6.40589064	      5.26069064	    -12.60540307	      3.84459425	      1.66558558	    -23.32036641	      5.30566257	     -4.25473384	     16.79556191	    -10.32470656	     11.17426858	     -7.60183148
      0.55800000	     -0.43898932	     -0.76502468	     -3.30085297	     -0.61685781	      1.00040281	      0.29234349	     17.77975767	      3.43061031	      4.24546886	     -9.01230618	     -1.34195613	     -6.53529054	      5.26164381	    -12.13580041	      3.59980761	      1.23556994	    -24.85317959	      4.66058734	     -3.85944259	     16.91143675	    -10.34655677	     11.34242973	     -7.49938851
      0.56216667	     -0.41523087	     -0.94052817	     -3.25529465	     -0.61092694	      1.00029279	      0.29271783	     17.75389837	      3.66177958	      4.27840510	     -9.78036584	     -1.20269410	     -6.76259638	      5.25588586	    -11.64569646	      3.31258381	      0.79058669	    -26.41808552	      3.92575367	     -3.51750320	     17.09997025	    -10.37064592	     11.51673632	     -7.38231744
      0.56633333	     -0.40868501	     -1.11352880	     -3.15472654	     -0.60502383	      1.00015962	      0.29301356	     17.74579322	      3.87282095	      4.22709875	    -10.55122280	     -0.99600717	     -7.00007548	      5.22008206	    -11.08943373	      3.00049161	      0.38796424	    -28.05214328	      3.16262336	     -3.06866370	     17.72127807	    -10.37595221	     11.71711828	     -7.22673532
      0.57050000	     -0.32148544	     -1.28160715	     -3.12884875	     -0.59914405	      1.00014294	      0.29343332	     17.66414785	      4.09905780	      4.25017290	    -11.35260963	     -0.72476665	     -7.15581967	      4.81043191	    -10.62234415	      2.69038742	     -0.13077169	    -29.63277458	      2.15428817	     -2.78192726	     22.85118733	    -10.49986683	     11.89259541	     -7.13768874
      0.57466667	     -0.32261876	     -1.44326946	     -3.06435264	     -0.59327475	      1.00001905	      0.29379750	     17.65983000	      4.31263276	      4.25573582	    -12.11991243	     -0.41539760	     -7.36508000	      4.80446912	    -10.02201149	      2.37782613	     -0.55235942	    -31.27470497	      1.12708231	     -2.58103328	     22.90844858	    -10.49099322	     12.05405312	     -7.00835412
      0.57883333	     -0.29146781	     -1.61092391	     -2.98592851	     -0.58744060	      0.99993835	      0.29416172	     17.62975775	      4.52575354	      4.21216763	    -12.91050382	     -0.03550569	     -7.51449976	      4.78826553	     -9.43161339	      2.03647995	     -0.98144844	    -32.93942972	      0.07958863	     -2.27064933	     23.03168919	    -10.53417726	     12.21391107	     -6.86948594
      0.58300000	     -0.27137909	     -1.77517283	     -2.89822074	     -0.58163136	      0.99985480	      0.29451471	     17.60283559	      4.73151608	      4.15199323	    -13.68386118	      0.39096225	     -7.64234909	      4.76093538	     -8.80896600	      1.68591727	     -1.39169755	    -34.61300422	     -1.05064780	     -2.00310107	     23.19981356	    -10.56201476	     12.37087946	     -6.73318863
      0.58716667	     -0.25922891	     -1.92102651	     -2.79876798	     -0.57587850	      0.99975316	      0.29483995	     17.59586763	      4.91186844	      4.06175334	    -14.47795514	      0.87481939	     -7.72347165	      4.69831325	     -8.15447410	      1.34749302	     -1.75832550	    -36.29278289	     -2.24542943	     -1.73607876	     23.49832665	    -10.60249698	     12.52949980	     -6.56862808
      0.59133333	     -0.21887271	     -2.09423995	     -2.70532449	     -0.57011031	      0.99971794	      0.29520328	     17.51969519	      5.12252714	      3.99061939	    -15.19585806	      1.36993224	     -7.79926828	      4.61808078	     -7.52802207	      0.96207693	     -2.15643661	    -37.95664214	     -3.51204022	     -1.54133634	     23.80749510	    -10.64945995	     12.67594958	     -6.42527005
      0.59550000	     -0.19269611	     -2.25195571	     -2.59676556	     -0.56440097	      0.99964853	      0.29554287	     17.45895742	      5.31200238	      3.90340431	    -15.90884871	      1.90509106	     -7.85305918	      4.51096255	     -6.86557671	      0.58892309	     -2.49593723	    -39.61892750	     -4.84616821	     -1.36065260	     24.13758891	    -10.70596344	     12.83266972	     -6.27294381
      0.59966667	     -0.13603994	     -2.42113284	     -2.48968181	     -0.55868637	      0.99964975	      0.29590725	     17.33240490	      5.51178013	      3.81511649	    -16.55383526	      2.43768727	     -7.89845633	      4.41443761	     -6.23680200	      0.18728225	     -2.85574830	    -41.25194393	     -6.21546052	     -1.22526993	     24.36734856	    -10.76544997	     12.96429299	     -6.13897773
